<?xml version="1.0" encoding="UTF-8" standalone="no"?>
<!-- Created with Inkscape (http://www.inkscape.org/) -->

<svg
   xmlns:dc="http://purl.org/dc/elements/1.1/"
   xmlns:cc="http://creativecommons.org/ns#"
   xmlns:rdf="http://www.w3.org/1999/02/22-rdf-syntax-ns#"
   xmlns:svg="http://www.w3.org/2000/svg"
   xmlns="http://www.w3.org/2000/svg"
   xmlns:sodipodi="http://sodipodi.sourceforge.net/DTD/sodipodi-0.dtd"
   xmlns:inkscape="http://www.inkscape.org/namespaces/inkscape"
   id="svg2"
   version="1.1"
   inkscape:version="0.48.4 r9939"
   width="743.75"
   height="1052.5"
   xml:space="preserve"
   sodipodi:docname="circle.svg"><metadata
     id="metadata8"><rdf:RDF><cc:Work
         rdf:about=""><dc:format>image/svg+xml</dc:format><dc:type
           rdf:resource="http://purl.org/dc/dcmitype/StillImage" /><dc:title /></cc:Work></rdf:RDF></metadata><defs
     id="defs6" /><sodipodi:namedview
     pagecolor="#ffffff"
     bordercolor="#666666"
     borderopacity="1"
     objecttolerance="10"
     gridtolerance="10"
     guidetolerance="10"
     inkscape:pageopacity="0"
     inkscape:pageshadow="2"
     inkscape:window-width="1366"
     inkscape:window-height="713"
     id="namedview4"
     showgrid="false"
     inkscape:zoom="1.2684253"
     inkscape:cx="447.01051"
     inkscape:cy="118.02289"
     inkscape:window-x="-1"
     inkscape:window-y="24"
     inkscape:window-maximized="1"
     inkscape:current-layer="g10" /><g
     id="g10"
     inkscape:groupmode="layer"
     inkscape:label="ink_ext_XXXXXX"
     transform="matrix(1.25,0,0,-1.25,0,1052.5)"><path
       style="fill:none;stroke:#000000;stroke-width:1.1338582;stroke-linecap:butt;stroke-linejoin:miter;stroke-miterlimit:4;stroke-opacity:1;stroke-dasharray:none"
       d="M 569.13557,421 25.864431,421"
       id="path3862-4"
       inkscape:connector-curvature="0" /><path
       style="fill:none;stroke:#000000;stroke-width:1.1338582;stroke-linecap:butt;stroke-linejoin:miter;stroke-miterlimit:4;stroke-opacity:1;stroke-dasharray:none"
       d="m 297.5,689.96517 0,-537.93034"
       id="path3862"
       inkscape:connector-curvature="0" /><path
       sodipodi:type="arc"
       style="fill:#ffffff;stroke:#000000;stroke-width:0.86447001000000001;stroke-miterlimit:4;stroke-opacity:1;stroke-dasharray:none;fill-opacity:1"
       id="path2993"
       sodipodi:cx="355.66473"
       sodipodi:cy="468.27332"
       sodipodi:rx="199.57362"
       sodipodi:ry="199.57362"
       d="m 555.23836,468.27332 c 0,110.22146 -89.35216,199.57362 -199.57363,199.57362 -110.22146,0 -199.57362,-89.35216 -199.57362,-199.57362 0,-110.22147 89.35216,-199.57363 199.57362,-199.57363 110.22147,0 199.57363,89.35216 199.57363,199.57363 z"
       transform="matrix(1.3116239,0,0,-1.311621,-168.99896,1035.1971)" /><path
       sodipodi:type="arc"
       style="fill:#000000;fill-opacity:1;stroke:none"
       id="path2993-6"
       sodipodi:cx="355.66473"
       sodipodi:cy="468.27332"
       sodipodi:rx="199.57362"
       sodipodi:ry="199.57362"
       d="m 214.54487,327.15346 c 77.93835,-77.93835 204.30137,-77.93836 282.23972,-10e-6 77.93835,77.93835 77.93836,204.30138 1e-5,282.23973 -77.93835,77.93835 -204.30138,77.93835 -282.23973,0 -77.93834,-77.93834 -77.93835,-204.30136 -2e-5,-282.23971 l 141.11988,141.11985 z"
       transform="matrix(0.86641402,0,0,-0.86641402,-10.652912,826.71857)"
       sodipodi:start="3.9269908"
       sodipodi:end="10.210176" /><path
       sodipodi:type="arc"
       style="fill:#ffffff;fill-opacity:1;stroke:none"
       id="path2993-6-8"
       sodipodi:cx="355.66473"
       sodipodi:cy="468.27332"
       sodipodi:rx="199.57362"
       sodipodi:ry="199.57362"
       d="m 555.23836,468.27332 c 0,110.22146 -89.35216,199.57362 -199.57363,199.57362 -110.22146,0 -199.57362,-89.35216 -199.57362,-199.57362 0,-110.22147 89.35216,-199.57363 199.57362,-199.57363 110.22147,0 199.57363,89.35216 199.57363,199.57363 z"
       transform="matrix(0.35508771,0,0,-0.35508771,171.20782,587.2781)" /><text
       xml:space="preserve"
       style="font-size:11.19999981px;font-style:normal;font-weight:normal;text-align:center;line-height:125%;letter-spacing:0px;word-spacing:0px;text-anchor:middle;fill:#000000;fill-opacity:1;stroke:none;font-family:Sans"
       x="294.07468"
       y="-62.105118"
       id="text3856"
       sodipodi:linespacing="125%"
       transform="scale(1,-1)"><tspan
         sodipodi:role="line"
         id="tspan3858"
         x="294.07468"
         y="-62.105118">outer: 122mm</tspan><tspan
         sodipodi:role="line"
         x="294.07468"
         y="-48.105118"
         id="tspan3860">inner: 50mm</tspan><tspan
         sodipodi:role="line"
         x="294.07468"
         y="-34.105118"
         id="tspan2990">PLEASE MEASURE ON FINAL PRINT</tspan></text>
</g></svg>